PathFileType	4	(X/Y/Z)	 s04c0103.trc
DataRate	CameraRate	NumFrames	NumMarkers	Units	OrigDataRate	OrigDataStartFrame	OrigNumFrames
200	200	4	50	mm	200	751	2000
Frame#	Time	racr			lacr			c7			jug			rlel			rdr			llel			ldr			s2			lic			ric			lasi			rasi			rpsi			lpsi			rgt			lgt			rth1			rth2			rth3			rth4			rlfc			rmfc			rsh1			rsh2			rsh3			rsh4			rlmal			rmmal			rcal			rtoe			rmt5			lth1			lth2			lth4			lth3			llfc			lmfc			lsh1			lsh2			lsh3			lsh4			llmal			lmmal			lcal			ltoe			lmt5			SBIKE			LBIKE			RBIKE			
		X1	Y1	Z1	X2	Y2	Z2	X3	Y3	Z3	X4	Y4	Z4	X5	Y5	Z5	X6	Y6	Z6	X7	Y7	Z7	X8	Y8	Z8	X9	Y9	Z9	X10	Y10	Z10	X11	Y11	Z11	X12	Y12	Z12	X13	Y13	Z13	X14	Y14	Z14	X15	Y15	Z15	X16	Y16	Z16	X17	Y17	Z17	X18	Y18	Z18	X19	Y19	Z19	X20	Y20	Z20	X21	Y21	Z21	X22	Y22	Z22	X23	Y23	Z23	X24	Y24	Z24	X25	Y25	Z25	X26	Y26	Z26	X27	Y27	Z27	X28	Y28	Z28	X29	Y29	Z29	X30	Y30	Z30	X31	Y31	Z31	X32	Y32	Z32	X33	Y33	Z33	X34	Y34	Z34	X35	Y35	Z35	X36	Y36	Z36	X37	Y37	Z37	X38	Y38	Z38	X39	Y39	Z39	X40	Y40	Z40	X41	Y41	Z41	X42	Y42	Z42	X43	Y43	Z43	X44	Y44	Z44	X45	Y45	Z45	X46	Y46	Z46	X47	Y47	Z47	X48	Y48	Z48	X49	Y49	Z49	X50	Y50	Z50	
751	3.7550	494.160355	1352.538117	-107.251372	508.295450	1346.712317	-371.828195	479.573990	1409.458537	-243.664842	447.384112	1255.109682	-248.273092	436.423676	1058.144878	21.443854	683.764150	926.010705	-73.536256	486.184785	1092.110977	-530.360149	703.326990	915.854936	-457.316337	-71.925390	1160.934443	-296.371977	95.535045	1176.806750	-435.590071	60.047228	1190.743872	-117.961283	136.132017	1134.690663	-384.495724	116.020791	1153.715005	-157.451760	-53.263456	1210.566841	-252.434390	-46.479301	1209.025072	-323.835709	27.778851	1125.784065	-103.941165	65.707481	1076.701366	-464.412299	156.770756	1020.751517	-88.589235	236.239714	983.440113	-99.852804	287.665314	916.121516	-105.686900	257.069571	1011.962604	-113.994995	387.165852	811.091604	-129.817806	369.030085	786.578917	-240.875630	350.499765	690.051453	-101.028702	351.348439	599.138808	-112.221632	306.019981	526.053841	-115.560014	382.655822	594.268271	-134.639801	279.613171	375.161575	-115.949335	299.141623	383.472323	-201.216162	211.043052	338.884416	-152.559177	511.665085	333.783417	-147.543231	446.864681	306.847104	-91.153291	127.469318	1013.232095	-477.572458	206.202807	977.222648	-479.123572	228.028488	1002.576747	-465.622497	258.316460	905.175229	-487.675858	350.065539	784.591694	-467.407843	379.793524	756.473390	-356.687459	283.257748	686.816316	-487.489029	236.552811	619.517120	-458.896104	157.956754	578.057276	-455.448177	256.655558	605.195837	-428.351157	47.640250	484.113014	-443.425135	46.196631	490.241316	-354.952508	-30.199224	514.979821	-400.568264	196.486724	312.199643	-405.841294	118.777461	330.269573	-467.160677	-177.483614	933.812348	-280.767033	-3.392304	85.302761	-484.879153	-15.121701	80.273078	-84.329738	
752	3.7600	495.204314	1351.522615	-107.068621	508.473745	1346.764587	-372.354513	480.414298	1409.236498	-243.183439	447.815698	1255.088056	-248.801004	437.214520	1057.970893	23.188272	683.471256	925.511855	-72.880308	486.495902	1092.366936	-531.016365	703.510686	916.117409	-457.252474	-71.773533	1162.550077	-295.461534	95.206686	1178.729867	-434.848303	60.965077	1191.053813	-117.091417	135.965206	1136.572103	-384.134798	116.776689	1154.049870	-156.697284	-52.677415	1211.841480	-250.828953	-46.256577	1210.788186	-321.913258	28.216368	1126.378863	-103.662576	66.244834	1079.830760	-464.339915	155.779958	1018.839494	-87.991009	234.371809	979.854545	-99.391033	284.285821	911.339103	-105.115625	255.790686	1007.882129	-113.536146	381.845756	803.752822	-129.234561	363.393942	778.168742	-240.511331	346.839645	681.671762	-100.268016	348.787789	590.865284	-111.822805	304.314969	517.312866	-114.764746	379.734510	586.509482	-134.794357	278.864350	366.216485	-115.364543	298.225686	374.405415	-200.682250	210.030171	330.787480	-151.743746	510.686940	322.103856	-148.422830	445.840591	296.303141	-91.473421	128.754233	1017.133705	-476.638416	208.140444	982.472289	-478.652046	229.562410	1007.970097	-464.832476	261.407968	911.432943	-487.900071	354.147009	791.649975	-467.773855	388.564538	765.087238	-355.265033	287.027051	694.489676	-488.170886	239.528086	627.668623	-459.232049	160.231621	586.899888	-455.178728	259.378101	613.425725	-428.609245	49.425706	494.216011	-443.643849	47.703642	500.766044	-355.481892	-28.684436	525.245655	-400.853740	198.147769	322.723562	-405.638761	120.558491	340.558669	-467.038280	-177.415955	933.840251	-280.773749	-3.374370	85.329117	-484.876901	-15.096861	80.284148	-84.314813	
753	3.7650	496.402274	1350.653062	-107.003565	508.732128	1346.952955	-373.004471	481.430336	1408.996691	-242.956486	448.317412	1255.170572	-249.341063	438.493886	1058.121489	24.999377	683.794971	925.258542	-72.646730	486.843839	1092.819645	-531.677746	703.736745	916.355419	-457.163643	-71.561258	1164.241835	-294.562394	94.835584	1180.995464	-434.103020	61.863146	1191.471756	-116.173187	135.696675	1138.537439	-383.568979	117.557811	1154.282823	-156.067202	-51.980985	1213.002004	-249.267366	-46.060877	1212.880665	-320.411359	28.649044	1126.819207	-103.319636	66.760310	1083.337549	-464.326555	154.670753	1016.740880	-87.307680	232.463692	976.007157	-98.750619	280.406864	906.406157	-104.331742	254.283442	1003.426132	-112.970602	376.074339	796.275069	-128.548330	354.164254	769.485110	-239.624818	342.303402	673.545741	-99.359945	345.272686	582.774657	-111.181353	301.716551	508.687987	-113.877881	376.123813	578.891849	-134.578671	277.330744	357.207164	-114.697928	296.466596	365.494995	-199.981463	208.430894	322.540977	-150.799653	508.847780	310.783241	-149.128656	443.977643	285.489069	-92.129953	129.987346	1021.314557	-475.391529	210.015140	988.024377	-478.206976	231.041520	1013.765759	-464.072507	264.309864	917.945084	-488.135952	358.639236	799.172643	-468.407453	387.138392	771.447582	-357.622783	290.962395	702.337172	-488.705427	242.832341	636.079592	-459.564470	163.110947	595.966755	-455.531663	262.417753	621.775975	-428.812149	51.682676	504.268232	-443.818684	49.743786	511.129287	-355.846284	-26.556454	535.409387	-401.125671	200.510183	333.296754	-405.316565	122.971567	350.842285	-466.854151	-177.345278	933.874182	-280.718900	-3.377037	85.401072	-484.852863	-15.090879	80.271933	-84.322512	
754	3.7700	497.684919	1350.204434	-107.060377	509.057734	1347.203649	-373.650955	482.556131	1408.866655	-243.017365	448.905123	1255.284084	-250.025444	440.194787	1058.688517	26.721213	684.282719	924.926064	-72.371560	487.153625	1093.446113	-532.314470	704.016667	916.636192	-456.999220	-71.578899	1165.975135	-293.426255	94.551747	1183.433131	-433.391340	62.899628	1191.795790	-115.240756	135.521788	1140.711393	-383.189515	118.432788	1154.405081	-155.476703	-51.154714	1214.445517	-247.810804	-45.998338	1215.170774	-318.855295	29.271912	1127.295051	-102.782173	67.265316	1087.135155	-464.343659	153.568937	1014.816017	-86.647941	230.106816	972.161294	-97.237378	276.376958	901.057583	-103.406758	252.742405	999.138947	-112.012559	369.863707	788.786235	-127.497184	347.941716	762.064662	-238.168907	336.912044	665.447124	-98.209233	340.796772	574.805284	-109.892615	298.055827	500.121809	-113.185401	371.591605	571.307480	-133.899975	274.967966	348.234138	-113.911226	294.011720	356.547558	-199.219709	206.108677	314.232358	-149.731482	506.469337	299.927581	-150.074920	441.729474	275.290466	-92.401330	131.251139	1026.029863	-474.518844	211.706319	993.950399	-477.714804	232.470474	1019.850234	-463.351770	266.995683	924.754268	-488.416047	363.068720	806.979687	-469.008559	386.613949	777.824110	-359.837861	295.104328	710.602930	-489.183653	246.331208	644.597371	-459.809437	166.507273	605.073673	-455.822836	265.964784	629.973818	-429.764943	54.544600	514.252391	-443.958918	52.521300	521.165154	-356.071941	-23.870115	545.440617	-401.416612	203.419098	343.516851	-404.794565	126.008875	361.025375	-466.624442	-177.294580	933.902384	-280.630084	-3.365267	85.435263	-484.835307	-15.086175	80.309918	-84.317994	
